<svg xmlns="http://www.w3.org/2000/svg" xmlns:xlink="http://www.w3.org/1999/xlink" width="1080" zoomAndPan="magnify" viewBox="0 0 810 809.999993" height="1080" preserveAspectRatio="xMidYMid meet" version="1.0"><defs><clipPath id="207749fa2c"><path d="M 216 13.855469 L 594 13.855469 L 594 580.105469 L 216 580.105469 Z M 216 13.855469 " clip-rule="nonzero"/></clipPath></defs><g clip-path="url(#207749fa2c)"><path fill="#000000" d="M 577.679688 155.375 L 483.355469 155.375 C 474.710938 155.375 467.636719 162.449219 467.636719 171.097656 L 467.636719 265.417969 C 467.636719 274.066406 474.710938 281.136719 483.355469 281.136719 L 514.796875 281.136719 L 514.796875 338.515625 L 420.476562 394.636719 L 420.476562 67.5 L 472.195312 119.21875 C 478.484375 125.191406 488.386719 125.035156 494.359375 118.90625 C 500.175781 112.773438 500.175781 103.183594 494.359375 97.054688 L 415.917969 18.453125 C 409.785156 12.324219 399.882812 12.324219 393.753906 18.453125 L 315.152344 97.054688 C 308.863281 103.027344 308.707031 113.089844 314.839844 119.21875 C 320.8125 125.507812 330.871094 125.664062 337.003906 119.535156 C 337.160156 119.375 337.316406 119.21875 337.316406 119.21875 L 389.035156 67.5 L 389.035156 473.710938 L 294.714844 418.53125 L 294.714844 357.066406 C 329.457031 348.105469 349.894531 311.476562 338.417969 276.734375 C 328.671875 247.496094 298.332031 229.417969 267.992188 235.078125 C 231.992188 241.679688 209.824219 277.207031 218.785156 312.105469 C 224.445312 333.957031 241.421875 351.25 263.429688 356.90625 L 263.429688 427.492188 C 263.429688 433.148438 266.417969 438.179688 271.289062 441.007812 L 389.191406 510.019531 L 389.191406 581.074219 C 336.371094 590.035156 301.316406 641.285156 312.792969 694.101562 C 323.007812 741.421875 368.28125 773.488281 416.230469 767.671875 C 469.992188 761.070312 506.777344 711.082031 497.976562 658.261719 C 491.214844 618.644531 460.246094 587.679688 420.632812 580.917969 L 420.632812 430.949219 L 538.691406 360.679688 C 543.40625 357.847656 546.394531 352.660156 546.394531 347.160156 L 546.394531 281.136719 L 577.835938 281.136719 C 586.480469 281.136719 593.554688 274.0625 593.554688 265.414062 L 593.554688 171.09375 C 593.398438 162.449219 586.324219 155.375 577.679688 155.375 Z M 247.710938 297.015625 C 247.710938 279.878906 261.546875 266.046875 278.679688 266.046875 C 295.816406 266.046875 309.648438 279.878906 309.648438 297.015625 C 309.648438 314.148438 295.8125 327.980469 278.679688 327.980469 C 261.546875 327.984375 247.710938 313.992188 247.710938 297.015625 Z M 467.164062 674.140625 C 467.164062 708.882812 439.027344 737.023438 404.285156 737.023438 C 369.542969 737.023438 341.402344 708.882812 341.402344 674.140625 C 341.402344 639.398438 369.542969 611.261719 404.285156 611.261719 C 439.027344 611.261719 467.164062 639.398438 467.164062 674.140625 Z M 561.957031 249.699219 L 531.773438 249.699219 C 530.832031 249.226562 529.730469 249.226562 528.789062 249.699219 L 499.078125 249.699219 L 499.078125 186.816406 L 561.957031 186.816406 Z M 561.957031 249.699219 " fill-opacity="1" fill-rule="nonzero"/></g><path fill="#000000" d="M 431.261719 607.425781 C 431.257812 607.410156 431.550781 607.464844 432.121094 607.578125 C 432.691406 607.695312 433.035156 607.730469 434.125 608.023438 C 435.21875 608.320312 436.109375 608.457031 437.671875 608.96875 C 439.234375 609.484375 440.597656 609.839844 442.574219 610.609375 C 444.550781 611.375 446.300781 612.050781 448.632812 613.097656 C 450.964844 614.148438 452.671875 614.941406 455.230469 616.417969 C 457.789062 617.894531 459.828125 619.035156 462.523438 620.96875 C 465.214844 622.902344 467.425781 624.523438 470.160156 626.925781 C 472.894531 629.324219 475.101562 631.515625 477.785156 634.375 C 480.46875 637.238281 482.417969 639.730469 484.800781 643.148438 C 487.1875 646.566406 489.136719 649.503906 491.101562 653.414062 C 493.070312 657.324219 494.824219 660.746094 496.261719 665.0625 C 497.703125 669.375 498.875 673.46875 499.921875 678.03125 C 500.964844 682.59375 501.335938 686.886719 501.707031 691.648438 C 502.078125 696.410156 501.808594 700.914062 501.464844 705.734375 C 501.117188 710.554688 500.171875 715.144531 499.097656 719.875 C 498.023438 724.605469 496.417969 729.15625 494.648438 733.652344 C 492.878906 738.148438 490.601562 742.515625 488.207031 746.648438 C 485.8125 750.777344 482.898438 754.820312 479.980469 758.480469 C 477.0625 762.140625 473.605469 765.746094 470.28125 768.855469 C 466.960938 771.960938 463.089844 775.070312 459.496094 777.574219 C 455.90625 780.078125 451.753906 782.6875 448.027344 784.558594 C 444.300781 786.429688 440.160156 788.277344 436.503906 789.695312 C 432.84375 791.117188 428.417969 792.484375 424.871094 793.300781 C 421.328125 794.117188 417.285156 794.9375 413.996094 795.363281 C 410.707031 795.789062 406.875 796.152344 403.921875 796.242188 C 400.96875 796.332031 397.824219 796.296875 395.269531 796.25 C 392.714844 796.203125 389.570312 795.84375 387.46875 795.597656 C 385.363281 795.351562 383.066406 795 381.445312 794.730469 C 379.828125 794.460938 378.015625 794.09375 376.910156 793.855469 C 375.804688 793.621094 374.960938 793.441406 374.390625 793.328125 C 373.824219 793.21875 373.53125 793.167969 373.539062 793.1875 C 373.546875 793.21875 373.5625 793.25 373.578125 793.28125 C 373.59375 793.3125 373.613281 793.34375 373.632812 793.371094 C 373.652344 793.402344 373.679688 793.433594 373.703125 793.460938 C 373.726562 793.488281 373.757812 793.519531 373.785156 793.546875 C 373.816406 793.578125 373.847656 793.605469 373.878906 793.632812 C 373.914062 793.660156 373.949219 793.6875 373.984375 793.714844 C 374.023438 793.742188 374.0625 793.769531 374.101562 793.792969 C 374.140625 793.820312 374.183594 793.847656 374.226562 793.875 C 374.269531 793.898438 374.3125 793.925781 374.355469 793.953125 C 374.402344 793.976562 374.449219 794.003906 374.496094 794.027344 C 374.542969 794.050781 374.589844 794.078125 374.640625 794.105469 C 374.6875 794.125 374.738281 794.152344 374.789062 794.179688 C 374.839844 794.199219 374.890625 794.226562 374.941406 794.253906 C 374.992188 794.273438 375.042969 794.300781 375.09375 794.328125 C 375.148438 794.347656 375.199219 794.375 375.25 794.398438 C 375.304688 794.421875 375.355469 794.449219 375.40625 794.472656 C 375.460938 794.496094 375.511719 794.523438 375.5625 794.546875 C 375.617188 794.570312 375.667969 794.597656 375.71875 794.621094 C 375.769531 794.644531 375.820312 794.671875 375.867188 794.695312 C 375.917969 794.714844 375.96875 794.746094 376.015625 794.769531 C 376.066406 794.792969 376.113281 794.820312 376.15625 794.84375 C 376.207031 794.867188 376.25 794.894531 376.292969 794.921875 C 376.339844 794.945312 376.382812 794.972656 376.421875 795 C 376.464844 795.023438 376.503906 795.050781 376.542969 795.078125 C 376.582031 795.101562 376.621094 795.128906 376.65625 795.15625 C 376.691406 795.183594 376.726562 795.210938 376.757812 795.238281 C 376.789062 795.265625 376.820312 795.292969 376.847656 795.324219 C 376.875 795.351562 376.902344 795.378906 376.925781 795.410156 C 376.949219 795.4375 376.972656 795.464844 376.992188 795.496094 C 377.011719 795.527344 377.027344 795.554688 377.042969 795.585938 C 377.054688 795.617188 377.066406 795.648438 377.074219 795.679688 C 377.085938 795.710938 377.09375 795.742188 377.09375 795.773438 C 377.089844 795.804688 377.339844 795.894531 377.832031 796.042969 C 378.324219 796.195312 379.609375 796.488281 380.578125 796.699219 C 381.550781 796.914062 383.28125 797.3125 384.707031 797.539062 C 386.132812 797.761719 388.292969 798.152344 390.140625 798.339844 C 391.988281 798.527344 394.558594 798.796875 396.792969 798.902344 C 399.03125 799.011719 401.964844 799.0625 404.550781 799.054688 C 407.136719 799.046875 410.875 798.765625 413.761719 798.464844 C 416.644531 798.167969 420.597656 797.5625 423.71875 796.925781 C 426.835938 796.285156 430.917969 795.242188 434.199219 794.226562 C 437.476562 793.214844 441.589844 791.640625 444.953125 790.234375 C 448.320312 788.828125 452.75 786.585938 456.03125 784.621094 C 459.316406 782.65625 463.21875 780.085938 466.417969 777.726562 C 469.621094 775.367188 473.527344 772.042969 476.4375 769.167969 C 479.347656 766.289062 482.574219 762.714844 485.246094 759.503906 C 487.914062 756.292969 490.796875 752 492.992188 748.386719 C 495.183594 744.777344 497.617188 740.261719 499.25 736.347656 C 500.882812 732.433594 502.53125 727.953125 503.757812 723.910156 C 504.980469 719.867188 506.085938 715.050781 506.679688 710.921875 C 507.269531 706.789062 507.699219 702.242188 507.871094 698.15625 C 508.042969 694.066406 507.882812 689.464844 507.460938 685.511719 C 507.035156 681.558594 506.378906 677.386719 505.601562 673.640625 C 504.824219 669.894531 503.734375 665.894531 502.488281 662.46875 C 501.242188 659.042969 499.894531 655.535156 498.417969 652.441406 C 496.945312 649.34375 495.320312 646.257812 493.6875 643.527344 C 492.054688 640.796875 490.296875 638.136719 488.582031 635.800781 C 486.863281 633.464844 485.125 631.199219 483.402344 629.269531 C 481.683594 627.34375 480.007812 625.546875 478.441406 623.949219 C 476.875 622.351562 475.363281 620.882812 473.945312 619.6875 C 472.523438 618.492188 471.285156 617.363281 470.140625 616.488281 C 469 615.609375 468.027344 614.859375 467.242188 614.25 C 466.460938 613.636719 465.832031 613.191406 465.417969 612.886719 C 465.003906 612.582031 464.796875 612.414062 464.8125 612.394531 C 464.824219 612.375 465.058594 612.503906 465.503906 612.777344 C 465.945312 613.046875 466.609375 613.46875 467.425781 614.054688 C 468.242188 614.644531 469.242188 615.371094 470.417969 616.230469 C 471.59375 617.085938 472.96875 618.179688 474.359375 619.433594 C 475.753906 620.683594 477.355469 622.089844 478.957031 623.683594 C 480.558594 625.277344 482.277344 627.101562 484.035156 629.035156 C 485.789062 630.964844 487.578125 633.304688 489.328125 635.652344 C 491.078125 638 492.875 640.753906 494.535156 643.5 C 496.199219 646.246094 497.847656 649.441406 499.347656 652.5625 C 500.851562 655.679688 502.417969 659.40625 503.519531 662.917969 C 504.621094 666.425781 505.789062 670.394531 506.585938 674.175781 C 507.378906 677.957031 507.988281 682.257812 508.421875 686.25 C 508.855469 690.238281 508.894531 695.019531 508.730469 699.144531 C 508.5625 703.273438 508.023438 707.941406 507.429688 712.113281 C 506.835938 716.285156 505.527344 721.242188 504.296875 725.324219 C 503.0625 729.40625 501.285156 734.351562 499.441406 738.214844 C 497.597656 742.082031 495.261719 746.464844 493.050781 750.113281 C 490.835938 753.761719 487.667969 758.078125 484.976562 761.320312 C 482.28125 764.566406 478.683594 768.539062 475.609375 771.300781 C 472.539062 774.066406 468.773438 777.203125 465.539062 779.589844 C 462.308594 781.976562 457.890625 784.8125 454.484375 786.644531 C 451.078125 788.472656 446.859375 790.527344 443.460938 791.953125 C 440.066406 793.378906 435.761719 794.820312 432.453125 795.851562 C 429.144531 796.878906 424.878906 797.761719 421.730469 798.417969 C 418.582031 799.074219 414.464844 799.488281 411.550781 799.800781 C 408.636719 800.117188 404.746094 800.183594 402.132812 800.207031 C 399.519531 800.230469 395.917969 800.105469 393.664062 799.898438 C 391.410156 799.695312 388.75 799.425781 386.890625 799.164062 C 385.03125 798.898438 382.773438 798.527344 381.339844 798.25 C 379.910156 797.976562 378.078125 797.609375 377.101562 797.375 C 376.121094 797.136719 375.371094 796.957031 374.863281 796.835938 C 374.355469 796.714844 374.089844 796.65625 374.085938 796.664062 C 374.066406 796.691406 374.390625 796.804688 375.035156 797.003906 C 375.679688 797.207031 377.253906 797.699219 378.539062 798 C 379.824219 798.300781 382.019531 798.875 383.910156 799.203125 C 385.800781 799.53125 388.59375 800.027344 391.050781 800.320312 C 393.507812 800.613281 397.46875 801.050781 400.453125 801.101562 C 403.4375 801.152344 407.878906 801.242188 411.320312 800.953125 C 414.757812 800.667969 419.585938 800.183594 423.394531 799.484375 C 427.203125 798.785156 432.273438 797.546875 436.359375 796.375 C 440.445312 795.203125 446.105469 792.910156 450.28125 791.027344 C 454.460938 789.144531 459.988281 785.992188 464.097656 783.375 C 468.207031 780.761719 473.367188 776.652344 477.242188 773.316406 C 481.121094 769.980469 486.132812 764.640625 489.414062 760.460938 C 492.695312 756.28125 496.613281 750.554688 499.3125 745.800781 C 502.011719 741.046875 505.269531 734.21875 506.996094 728.914062 C 508.722656 723.609375 510.664062 716.800781 511.578125 711.230469 C 512.496094 705.660156 513.066406 698.628906 513.136719 692.960938 C 513.207031 687.292969 512.484375 679.902344 511.449219 674.351562 C 510.414062 668.800781 508.570312 662.199219 506.765625 656.917969 C 504.964844 651.640625 501.863281 645.242188 499.144531 640.496094 C 496.425781 635.75 492.675781 630.414062 489.402344 626.226562 C 486.125 622.039062 481.46875 617.246094 477.601562 613.894531 C 473.734375 610.542969 468.960938 606.820312 464.847656 604.203125 C 460.734375 601.585938 455.710938 598.765625 451.515625 596.90625 C 447.320312 595.050781 442.546875 593.292969 438.503906 591.96875 C 434.460938 590.648438 429.542969 589.578125 425.714844 588.9375 C 421.890625 588.300781 417.636719 587.820312 414.1875 587.589844 C 410.738281 587.363281 406.921875 587.375 403.933594 587.46875 C 400.941406 587.566406 397.648438 587.84375 395.1875 588.160156 C 392.726562 588.476562 390.273438 588.871094 388.371094 589.203125 C 386.472656 589.53125 384.617188 589.972656 383.320312 590.253906 C 382.019531 590.53125 380.78125 590.863281 380.113281 591.027344 C 379.445312 591.1875 379.09375 591.257812 379.085938 591.222656 C 379.078125 591.191406 379.410156 591.0625 380.0625 590.839844 C 380.714844 590.621094 381.953125 590.230469 383.238281 589.894531 C 384.527344 589.5625 386.390625 589.066406 388.28125 588.691406 C 390.171875 588.3125 392.644531 587.867188 395.101562 587.511719 C 397.554688 587.152344 400.914062 586.828125 403.902344 586.695312 C 406.886719 586.5625 410.785156 586.515625 414.234375 586.710938 C 417.683594 586.90625 422.027344 587.363281 425.855469 587.976562 C 429.683594 588.585938 434.753906 589.660156 438.804688 590.960938 C 442.851562 592.257812 447.734375 594.03125 451.933594 595.867188 C 456.132812 597.703125 461.316406 600.582031 465.433594 603.179688 C 469.550781 605.777344 474.480469 609.582031 478.355469 612.917969 C 482.226562 616.253906 487.066406 621.199219 490.347656 625.375 C 493.628906 629.550781 497.5 635.019531 500.226562 639.753906 C 502.953125 644.488281 505.78125 650.753906 507.84375 655.933594 C 509.90625 661.109375 511.722656 668.414062 512.765625 673.953125 C 513.808594 679.496094 514.59375 687.148438 514.53125 692.808594 C 514.46875 698.464844 513.914062 705.703125 513.007812 711.265625 C 512.105469 716.828125 510.152344 723.847656 508.433594 729.144531 C 506.71875 734.445312 503.402344 741.554688 500.714844 746.304688 C 498.027344 751.054688 494.03125 756.984375 490.765625 761.160156 C 487.5 765.339844 482.617188 770.347656 478.921875 773.867188 C 475.226562 777.390625 469.328125 781.890625 465.234375 784.511719 C 461.144531 787.132812 455.457031 790.449219 451.296875 792.34375 C 447.136719 794.234375 441.839844 796.285156 437.835938 797.664062 C 433.828125 799.046875 427.953125 800.382812 424.160156 801.101562 C 420.367188 801.820312 415.390625 802.394531 411.964844 802.707031 C 408.542969 803.019531 403.933594 803.015625 400.960938 802.996094 C 397.992188 802.976562 393.84375 802.613281 391.398438 802.359375 C 388.953125 802.101562 386.0625 801.660156 384.179688 801.371094 C 382.296875 801.082031 379.992188 800.566406 378.714844 800.3125 C 377.433594 800.058594 375.742188 799.621094 375.097656 799.476562 C 374.453125 799.328125 374.128906 799.269531 374.148438 799.300781 C 374.183594 799.371094 374.605469 799.546875 375.386719 799.824219 C 376.167969 800.101562 378.066406 800.648438 379.566406 801.046875 C 381.066406 801.445312 383.671875 802.050781 385.851562 802.488281 C 388.03125 802.925781 392.082031 803.605469 394.914062 803.867188 C 397.746094 804.128906 402.429688 804.53125 405.847656 804.496094 C 409.265625 804.460938 414.492188 804.292969 418.410156 803.859375 C 422.324219 803.421875 428.734375 802.46875 433 801.34375 C 437.265625 800.21875 443.125 798.386719 447.660156 796.710938 C 452.195312 795.03125 459.429688 791.5 463.875 788.792969 C 468.324219 786.085938 474.605469 781.742188 478.863281 778.21875 C 483.125 774.695312 489.382812 768.59375 493.050781 764.101562 C 496.71875 759.609375 501.441406 752.851562 504.515625 747.671875 C 507.585938 742.492188 511.3125 733.996094 513.339844 728.140625 C 515.363281 722.289062 517.605469 713.144531 518.429688 706.882812 C 519.253906 700.621094 519.753906 691.1875 519.3125 684.8125 C 518.875 678.433594 517.511719 669.125 515.839844 662.933594 C 514.167969 656.738281 511.003906 647.949219 508.191406 642.210938 C 505.382812 636.472656 500.582031 628.542969 496.777344 623.507812 C 492.972656 618.46875 486.789062 611.671875 482.179688 607.546875 C 477.566406 603.417969 470.320312 597.933594 465.140625 594.882812 C 459.960938 591.832031 452.621094 588.273438 447.253906 586.121094 C 441.882812 583.964844 433.539062 581.605469 428.117188 580.625 C 422.691406 579.644531 415.175781 578.765625 409.996094 578.617188 C 404.8125 578.46875 397.652344 578.855469 392.878906 579.425781 C 388.105469 580 381.523438 581.359375 377.296875 582.507812 C 373.066406 583.652344 367.160156 585.644531 363.578125 587.195312 C 359.992188 588.746094 355.464844 590.914062 352.503906 592.542969 C 349.546875 594.175781 345.75 596.53125 343.4375 598.113281 C 341.125 599.695312 337.992188 601.964844 336.320312 603.359375 C 334.648438 604.753906 332.703125 606.375 331.597656 607.390625 C 330.492188 608.40625 329.644531 609.1875 329.074219 609.710938 C 328.503906 610.234375 327.75 611.015625 327.75 611.015625 L 333.273438 605.882812 L 338.597656 601.5625 L 344.164062 597.558594 L 350.550781 593.546875 L 356.597656 590.300781 L 362.820312 587.410156 L 369.207031 584.886719 L 376.421875 582.597656 L 383.097656 580.929688 L 389.863281 579.652344 L 397.425781 578.75 L 404.316406 578.378906 L 411.226562 578.417969 L 418.871094 578.953125 L 425.734375 579.910156 L 432.53125 581.277344 L 439.238281 583.042969 L 445.832031 585.203125 L 452.972656 588.105469 L 459.226562 591.113281 L 465.285156 594.492188 L 471.757812 598.660156 L 477.308594 602.8125 L 482.605469 607.28125 L 487.628906 612.054688 L 492.816406 617.710938 L 497.164062 623.097656 L 501.1875 628.730469 L 505.226562 635.25 L 508.480469 641.363281 L 511.378906 647.652344 L 514.136719 654.832031 L 516.1875 661.457031 L 517.847656 668.199219 L 519.113281 675.03125 L 519.976562 682.722656 L 520.324219 689.683594 L 520.257812 696.65625 L 519.65625 704.425781 L 518.65625 711.347656 L 517.246094 718.199219 L 515.433594 724.964844 L 512.910156 732.382812 L 510.21875 738.855469 L 507.148438 745.152344 L 503.710938 751.257812 L 499.414062 757.804688 L 495.195312 763.390625 L 490.65625 768.71875 L 485.21875 774.328125 L 480.019531 779.003906 L 474.558594 783.363281 L 468.851562 787.402344 L 462.183594 791.464844 L 455.996094 794.722656 L 449.628906 797.621094 L 442.300781 800.375 L 435.59375 802.414062 L 428.777344 804.0625 L 421.019531 805.40625 L 414.027344 806.140625 L 406.992188 806.464844 L 399.945312 806.371094 L 392.03125 805.703125 C 392.03125 805.703125 411.992188 808.414062 419.203125 807.589844 C 424.1875 807.019531 432.394531 805.402344 438.183594 803.863281 C 443.972656 802.324219 454.359375 798.300781 460.375 795.027344 C 466.390625 791.75 475.601562 785.773438 481.457031 780.933594 C 487.3125 776.09375 495.980469 766.808594 500.867188 760.1875 C 505.753906 753.566406 513.058594 740.46875 516.234375 731.308594 C 519.410156 722.152344 522.878906 706.355469 523.207031 695.753906 C 523.535156 685.148438 521.539062 667.6875 518.175781 657.234375 C 514.808594 646.78125 507.214844 631.027344 500.707031 622.402344 C 494.195312 613.773438 481.75 601.171875 472.71875 595.226562 C 463.6875 589.28125 449.125 582.269531 440.089844 579.671875 C 431.058594 577.078125 417.609375 575.046875 410.757812 574.855469 C 403.902344 574.664062 395.828125 575.277344 395.25 575.347656 C 394.675781 575.417969 391.105469 575.769531 387.167969 576.378906 C 383.230469 576.988281 375.484375 578.757812 369.992188 580.417969 C 364.5 582.078125 355.25 586.054688 349.171875 589.222656 C 343.097656 592.390625 333.398438 599.128906 327.976562 603.84375 C 322.558594 608.558594 314.941406 616.851562 310.3125 622.792969 C 305.683594 628.730469 299.59375 639.84375 296.5625 646.734375 C 293.527344 653.625 289.84375 665.785156 288.660156 672.867188 C 287.476562 679.953125 286.582031 691.089844 286.769531 697.578125 C 286.957031 704.0625 288.261719 714.617188 289.609375 720.601562 C 290.957031 726.585938 294.058594 736.394531 296.316406 741.570312 C 298.578125 746.75 302.617188 754.476562 305.265625 758.757812 C 307.914062 763.039062 312.792969 769.566406 315.546875 772.855469 C 318.296875 776.144531 322.683594 780.605469 325.117188 783.003906 C 335.171875 790.050781 332.703125 787.105469 341.945312 790.636719 C 355.367188 795.90625 373.101562 790.210938 376.144531 784.308594 C 379.1875 778.40625 375.246094 762.476562 359.054688 746.371094 C 356.605469 744.125 355.554688 743.277344 352.730469 740.144531 C 349.90625 737.011719 349.207031 736.292969 346.414062 732.132812 C 343.625 727.976562 342.761719 726.453125 340.28125 721.328125 C 337.804688 716.207031 337.5 715.058594 335.882812 709.007812 C 334.261719 702.953125 334.074219 701.324219 333.601562 694.605469 C 333.128906 687.882812 332.972656 686.707031 334.300781 679.035156 C 335.625 671.363281 335.652344 669.28125 339.074219 661.597656 C 342.496094 653.914062 343.453125 651.4375 348.765625 644.652344 C 354.082031 637.863281 356.128906 635.808594 362.734375 630.601562 C 369.335938 625.394531 371.066406 624.175781 378.753906 621.042969 C 386.441406 617.90625 388.902344 616.789062 395.964844 615.71875 C 403.027344 614.648438 405.511719 614.183594 410.652344 614.398438 C 415.792969 614.613281 417.6875 614.710938 418.105469 614.765625 C 418.519531 614.816406 420.003906 614.8125 423.851562 615.46875 C 427.699219 616.125 430.0625 616.300781 435.8125 618.203125 C 441.5625 620.101562 444.738281 621.136719 451.347656 624.914062 C 457.957031 628.6875 461.320312 631.03125 467.4375 636.878906 C 473.554688 642.726562 476.660156 646.210938 481.234375 654.179688 C 485.808594 662.148438 488.382812 667.308594 490.582031 676.578125 C 492.785156 685.847656 493.796875 692.167969 493.199219 701.628906 C 492.601562 711.089844 491.265625 718.03125 488.460938 726.632812 C 485.660156 735.234375 482.53125 741.339844 477.503906 748.464844 C 472.472656 755.59375 467.613281 760.957031 461.4375 766.304688 C 455.265625 771.652344 449.335938 775.386719 442.765625 778.765625 C 443.199219 778.707031 443.785156 778.5625 444.519531 778.34375 C 445.253906 778.125 446.023438 777.859375 447.019531 777.445312 C 448.015625 777.027344 449.070312 776.621094 450.296875 775.996094 C 451.523438 775.371094 452.816406 774.769531 454.234375 773.921875 C 455.652344 773.074219 457.121094 772.242188 458.699219 771.164062 C 460.277344 770.089844 461.863281 768.988281 463.566406 767.683594 C 465.265625 766.375 466.910156 764.980469 468.699219 763.445312 C 470.492188 761.90625 472.054688 760.292969 473.816406 758.4375 C 475.574219 756.585938 477.203125 754.816406 478.871094 752.652344 C 480.539062 750.492188 482.113281 748.328125 483.753906 745.953125 C 485.394531 743.582031 486.65625 741.230469 488.113281 738.585938 C 489.570312 735.941406 490.679688 733.421875 491.898438 730.539062 C 493.121094 727.652344 494.03125 724.992188 494.976562 721.910156 C 495.921875 718.824219 496.601562 716.054688 497.238281 712.816406 C 497.875 709.582031 498.277344 706.734375 498.585938 703.398438 C 498.894531 700.0625 498.980469 697.183594 498.949219 693.804688 C 498.917969 690.421875 498.667969 687.566406 498.300781 684.195312 C 497.929688 680.824219 497.34375 678.050781 496.648438 674.742188 C 495.953125 671.429688 495.046875 668.796875 494.042969 665.597656 C 493.039062 662.402344 492.101562 660.210938 490.671875 657.234375 C 489.238281 654.257812 488.128906 651.925781 486.457031 649.160156 C 484.78125 646.398438 483.496094 644.296875 481.625 641.777344 C 479.75 639.261719 478.363281 637.40625 476.332031 635.160156 C 474.300781 632.917969 472.886719 631.300781 470.746094 629.351562 C 468.609375 627.398438 466.796875 625.835938 464.683594 624.089844 C 462.574219 622.339844 461.089844 621.382812 458.960938 619.945312 C 456.835938 618.507812 455.566406 617.65625 453.476562 616.527344 C 451.390625 615.398438 449.828125 614.550781 447.882812 613.617188 C 445.9375 612.679688 444.519531 612.078125 442.75 611.328125 C 440.976562 610.578125 439.757812 610.175781 438.195312 609.59375 C 436.628906 609.015625 435.65625 608.757812 434.332031 608.332031 C 433.003906 607.90625 432.316406 607.726562 431.261719 607.433594 " fill-opacity="1" fill-rule="nonzero"/></svg>