<svg xmlns="http://www.w3.org/2000/svg" viewBox="0 0 108 108" width="108" height="108">
  <rect x="4" y="4" width="100" height="100" rx="20" fill="#fff" stroke="#000" stroke-width="1"/>
  <g>
    <path fill="#000" d="M42.4,18.13C42.46,18.84 42.46,19.66 42.4,20.59C42.35,21.47 42.3,22.29 42.24,23.05C42.09,24.42 41.92,25.89 41.72,27.47C40.65,27.48 39.56,27.49 38.46,27.49C36.82,27.49 34.99,27.43 32.96,27.32C30.99,27.16 29.13,27 27.38,26.83C25.62,26.61 24.28,26.45 23.35,26.34L23.6,35.86C24.86,35.92 26.34,36 28.03,36.11C29.78,36.17 31.54,36.22 33.29,36.28C35.1,36.33 36.71,36.36 38.13,36.36C39,36.36 39.89,36.35 40.79,36.35C40.75,36.78 40.72,37.23 40.68,37.67C40.46,40.35 40.24,43.09 40.02,45.88C40.01,46.14 39.99,46.4 39.98,46.66C37.93,47.61 35.97,48.75 34.11,50.07C31.26,52.04 28.77,54.32 26.64,56.89C24.5,59.46 22.83,62.17 21.63,65.02C20.42,67.87 19.82,70.77 19.82,73.72C19.82,76.46 20.31,78.73 21.3,80.54C22.34,82.29 23.71,83.58 25.4,84.4C27.1,85.22 28.94,85.63 30.91,85.63C34.41,85.63 37.89,84.89 41.34,83.41C42.13,83.06 42.91,82.69 43.67,82.31C44.01,83.53 44.35,84.66 44.7,85.71L54.15,82.84C53.48,80.88 52.84,78.84 52.23,76.74C54.25,75.05 56.28,73.04 58.34,70.69C60.96,67.62 63.4,64.06 65.65,60.01C67.08,57.45 68.37,54.73 69.53,51.85C69.8,51.97 70.07,52.08 70.33,52.21C72.9,53.36 74.82,54.89 76.08,56.81C77.39,58.72 78.05,60.89 78.05,63.29C78.05,65.98 77.28,68.58 75.75,71.1C74.27,73.61 71.89,75.78 68.6,77.58C65.32,79.34 61.05,80.51 55.79,81.12L61.21,89.74C66.25,88.97 70.49,87.74 73.94,86.04C77.39,84.35 80.15,82.32 82.23,79.97C84.37,77.61 85.9,75.07 86.83,72.33C87.76,69.54 88.23,66.69 88.23,63.79C88.23,59.46 87.08,55.68 84.78,52.45C82.48,49.22 79.31,46.68 75.25,44.82C74.31,44.38 73.34,43.99 72.34,43.66C72.6,42.93 72.86,42.22 73.12,41.53C73.45,40.66 73.69,39.97 73.86,39.48L63.84,37.1C63.78,37.1 63.67,38.38 63.51,39.31C63.4,40.19 63.26,41.07 63.1,41.94C63.09,41.98 63.09,42.01 63.08,42.05C62.6,42.03 62.11,42.02 61.62,42.02C58.5,42.02 55.33,42.33 52.1,42.93C51.16,43.1 50.25,43.3 49.36,43.51C49.39,42.99 49.43,42.47 49.47,41.94C49.62,39.95 49.79,38 50,36.1C52.96,35.95 55.96,35.76 58.99,35.54C62.72,35.26 66.28,34.93 69.67,34.55C73.12,34.11 76.27,33.65 79.11,33.15L79.03,23.63C74.82,24.67 70.57,25.46 66.3,26.01C62.09,26.56 57.68,26.94 53.08,27.16C52.44,27.19 51.8,27.22 51.15,27.25C51.4,25.63 51.66,24.12 51.93,22.73C52.09,22.07 52.26,21.38 52.42,20.67L53.08,18.37L42.4,18.13zM60.37,50.4C59.12,53.4 57.71,56.05 56.12,58.37C54.15,61.23 52.1,63.79 49.95,66.05C49.86,65.46 49.79,64.88 49.71,64.28C49.28,60.67 49.06,56.72 49.06,52.45C49.06,52.37 49.06,52.28 49.06,52.2C49.66,52.01 50.29,51.82 50.95,51.63C53.74,50.86 56.89,50.45 60.37,50.4zM39.81,56.46C39.88,59.66 40.12,62.84 40.52,66C40.82,68.41 41.17,70.71 41.55,72.93C41.07,73.21 40.59,73.48 40.11,73.72C37.53,74.98 35.26,75.61 33.29,75.61C31.97,75.61 31.02,75.28 30.41,74.63C29.81,73.92 29.51,72.9 29.51,71.59C29.51,69.73 30.11,67.7 31.32,65.51C32.52,63.32 34.19,61.24 36.33,59.27C37.41,58.24 38.57,57.31 39.81,56.46z"/>
  </g>
</svg>
